<svg height="512" viewBox="0 0 512 512" width="512" xmlns="http://www.w3.org/2000/svg"><g id="solid"><path d="m51.984 138.393-15.243 4.207a273.083 273.083 0 0 0 71.346 87.042l5.976-15.132a286.21 286.21 0 0 1 -62.079-76.117z"/><path d="m456.26 397.922a543.956 543.956 0 0 0 -80.328-110.585l-93.016-90.247a410.055 410.055 0 0 1 -54.577-65.247l-19.859-29.49a84.262 84.262 0 0 1 21.326-8.648l11.973-9.834a194.65 194.65 0 0 0 -40.62-49.457l-11.973 9.834a84.247 84.247 0 0 1 -22.532 28.858l-29.984 24.627a191.964 191.964 0 0 1 -68.77 36.232 270.113 270.113 0 0 0 52.624 64.907 193.8 193.8 0 0 1 50.255-66.961l16.26 24.145a410 410 0 0 0 65.445 75.415l82.036 74.009a543.989 543.989 0 0 1 95.992 129.266l.086.161 1.278 12.781a24 24 0 0 0 16.9 20.575 24 24 0 0 0 22.214-4.415 23.082 23.082 0 0 0 5.58-28.948z"/></g></svg>