<svg id="Capa_1" enable-background="new 0 0 512 512" height="512" viewBox="0 0 512 512" width="512" xmlns="http://www.w3.org/2000/svg"><g><path d="m360.765 423.5c-2.171-56.112-19.101-73.051-34.158-88.107-12.62-12.62-23.657-23.664-25.374-67.052 17.338-6.257 29.767-22.873 29.767-42.341v-16h15c8.284 0 15-6.716 15-15 0-32.178-20.373-59.68-48.894-70.305 11.743-13.243 18.894-30.645 18.894-49.695 0-41.355-33.645-75-75-75s-75 33.645-75 75c0 19.05 7.151 36.452 18.894 49.695-28.521 10.625-48.894 38.127-48.894 70.305 0 8.284 6.716 15 15 15h15v16c0 19.468 12.429 36.084 29.767 42.341-1.716 43.389-12.754 54.433-25.374 67.052-15.057 15.057-31.987 31.995-34.158 88.107-17.58 6.126-30.235 22.858-30.235 42.5v31c0 8.284 6.716 15 15 15h240c8.284 0 15-6.716 15-15v-31c0-19.642-12.655-36.374-30.235-42.5zm-104.765-393.5c24.813 0 45 20.187 45 45s-20.187 45-45 45-45-20.187-45-45 20.187-45 45-45zm-30 120h60c19.556 0 36.239 12.539 42.43 30h-144.86c6.191-17.461 22.874-30 42.43-30zm75 60v16c0 8.271-6.729 15-15 15h-60c-8.271 0-15-6.729-15-15v-16zm-94.394 146.607c14.831-14.831 31.481-31.485 34.051-85.607h30.684c2.571 54.121 19.22 70.776 34.051 85.607 12.358 12.358 23.198 23.206 25.254 64.393h-149.294c2.057-41.187 12.897-52.036 25.254-64.393zm154.394 125.393h-210v-16c0-8.271 6.729-15 15-15h180c8.271 0 15 6.729 15 15z"/></g></svg>