<svg id="bold" enable-background="new 0 0 24 24" height="512" viewBox="0 0 24 24" width="512" xmlns="http://www.w3.org/2000/svg"><g><path d="m17.5 11c-3.584 0-6.5 2.916-6.5 6.5s2.916 6.5 6.5 6.5 6.5-2.916 6.5-6.5-2.916-6.5-6.5-6.5zm1 10c0 .552-.447 1-1 1s-1-.448-1-1v-3.5c0-.552.447-1 1-1s1 .448 1 1zm-1-6c-.552 0-1-.448-1-1s.448-1 1-1 1 .448 1 1-.448 1-1 1z"/><path d="m17.5 9c.17 0 .33 0 .5.01v-.01zm-17.5 6h9.37c1.08-3.48 4.31-6 8.13-6h-17.5z"/><path d="m9 17.5c0-.17 0-.33.01-.5h-9.01v4.25c0 1.52 1.23 2.75 2.75 2.75h9.27c-1.85-1.56-3.02-3.9-3.02-6.5z"/><path d="m15.25 0h-12.5c-1.52 0-2.75 1.23-2.75 2.75v4.25h18v-4.25c0-1.52-1.23-2.75-2.75-2.75zm-11.75 5c-.83 0-1.5-.67-1.5-1.5s.67-1.5 1.5-1.5 1.5.67 1.5 1.5-.67 1.5-1.5 1.5zm5 0c-.83 0-1.5-.67-1.5-1.5s.67-1.5 1.5-1.5 1.5.67 1.5 1.5-.67 1.5-1.5 1.5zm5 0c-.83 0-1.5-.67-1.5-1.5s.67-1.5 1.5-1.5 1.5.67 1.5 1.5-.67 1.5-1.5 1.5z"/></g></svg>