<svg id="Capa_1" enable-background="new 0 0 512 512" height="512" viewBox="0 0 512 512" width="512" xmlns="http://www.w3.org/2000/svg"><path d="m290.395 269.184-83.789-83.789c-5.859-5.859-15.352-5.859-21.211 0l-10.606 10.605 115.605 115.605c5.859 5.859 15.352 5.859 21.211 0l171.334-171.334c-4.733-9.241-9.818-18.27-15.602-26.819l-155.732 155.732c-5.859 5.859-15.351 5.859-21.21 0z"/><path d="m19.609 351.18c3.997 9.891 8.544 19.486 13.702 28.72l141.478-141.478-21.211-21.211z"/><path d="m332.816 332.816c-8.774 8.774-20.288 13.154-31.816 13.154s-23.042-4.38-31.816-13.154l-73.184-73.183-146.021 146.021c46.404 63.7 121.353 106.346 206.021 106.346 140.61 0 256-115.39 256-256 0-30.247-6.568-59.149-16.276-86.091z"/><path d="m0 256c0 21.826 4.051 42.903 9.232 63.135l154.951-154.951c17.549-17.549 46.084-17.549 63.633 0l73.184 73.183 147.784-147.784c-46.794-54.134-115.779-89.583-192.784-89.583-140.61 0-256 115.39-256 256z"/></svg>