<svg id="Capa_1" enable-background="new 0 0 510 510" height="512" viewBox="0 0 510 510" width="512" xmlns="http://www.w3.org/2000/svg"><g><path d="m0 151.066v207.867c0 28.159 22.908 51.067 51.066 51.067h143.934v-310h-143.934c-28.158 0-51.066 22.908-51.066 51.066zm105 198.934h-30v-30h30zm-10.374-195h5.748c27.364 0 49.626 22.262 49.626 49.626 0 18.011-9.781 34.634-25.525 43.381l-19.475 10.819v31.174h-30v-48.826l34.904-19.392c6.228-3.46 10.096-10.033 10.096-17.156 0-10.822-8.804-19.626-19.626-19.626h-5.748c-10.822 0-19.626 8.804-19.626 19.626v10.374h-30v-10.374c0-27.364 22.262-49.626 49.626-49.626z"/><path d="m458.934 100h-233.934v310h233.934c28.158 0 51.066-22.908 51.066-51.066v-207.868c0-28.158-22.908-51.066-51.066-51.066zm-98.934 230h-90v-30h90zm45-60h-135v-30h135zm60-60h-195v-30h195z"/></g></svg>