<svg height="448pt" viewBox="0 0 448 448" width="448pt" xmlns="http://www.w3.org/2000/svg"><path d="m448 64h-448v224h448zm-96 176h-256c-35.347656 0-64-28.652344-64-64s28.652344-64 64-64h256c35.347656 0 64 28.652344 64 64s-28.652344 64-64 64zm0 0"/><path d="m336 168c0 4.417969-3.582031 8-8 8s-8-3.582031-8-8 3.582031-8 8-8 8 3.582031 8 8zm0 0"/><path d="m352 128h-64v96h64c26.507812 0 48-21.492188 48-48s-21.492188-48-48-48zm2.34375 77.65625-16.0625-16.054688c-3.203125 1.5625-6.71875 2.382813-10.28125 2.398438-13.253906 0-24-10.746094-24-24s10.746094-24 24-24 24 10.746094 24 24c-.015625 3.5625-.835938 7.078125-2.398438 10.28125l16.0625 16.0625zm0 0"/><path d="m48 176c.027344 26.5 21.5 47.972656 48 48h176v-96h-176c-26.5.027344-47.972656 21.5-48 48zm136-8h16v16h-16zm-32 0h16v16h-16zm-32 0h16v16h-16zm0 0"/><path d="m175.0625 368-6 48h109.875l-6-48zm0 0"/><path d="m448 24c0-13.253906-10.746094-24-24-24h-400c-13.253906 0-24 10.746094-24 24v24h448zm-400 8h-16v-16h16zm32 0h-16v-16h16zm32 0h-16v-16h16zm0 0"/><path d="m128 440c0 4.417969 3.582031 8 8 8h176c4.417969 0 8-3.582031 8-8s-3.582031-8-8-8h-176c-4.417969 0-8 3.582031-8 8zm0 0"/><path d="m448 304h-448v24c0 13.253906 10.746094 24 24 24h400c13.253906 0 24-10.746094 24-24zm-32 32h-16v-16h16zm0 0"/></svg>