<svg aria-hidden="true" style="position: absolute; width: 0; height: 0; overflow: hidden;" version="1.1" xmlns="http://www.w3.org/2000/svg" xmlns:xlink="http://www.w3.org/1999/xlink">
<defs>
<symbol id="icon-axe" viewBox="0 0 32 32">
<path d="M3.249 8.65l-0.953 0.263c1.133 2.152 2.629 3.962 4.427 5.415l0.032 0.025 0.373-0.946c-1.539-1.339-2.831-2.911-3.834-4.669l-0.046-0.088z"></path>
<path d="M28.516 24.87c-1.458-2.628-3.124-4.896-5.037-6.929l0.016 0.017-5.814-5.64c-1.251-1.215-2.374-2.55-3.354-3.989l-0.057-0.089-1.241-1.843c0.384-0.225 0.827-0.41 1.296-0.532l0.037-0.008 0.748-0.615c-0.696-1.195-1.54-2.215-2.525-3.079l-0.014-0.012-0.748 0.615c-0.345 0.715-0.82 1.317-1.399 1.797l-0.009 0.007-1.874 1.539c-1.209 1.001-2.644 1.778-4.213 2.243l-0.085 0.022c0.915 1.56 2.008 2.897 3.275 4.044l0.014 0.013c0.762-1.654 1.823-3.049 3.125-4.172l0.016-0.013 1.016 1.509c1.208 1.78 2.556 3.326 4.068 4.694l0.022 0.020 5.127 4.626c2.332 2.324 4.329 4.983 5.911 7.9l0.089 0.179 0.005 0.010 0.080 0.799c0.063 0.61 0.483 1.108 1.046 1.283l0.011 0.003c0.131 0.041 0.281 0.065 0.436 0.065 0.363 0 0.695-0.129 0.955-0.343l-0.003 0.002c0.323-0.267 0.527-0.667 0.527-1.115 0-0.255-0.066-0.494-0.182-0.702l0.004 0.007z"></path>
</symbol>
<symbol id="icon-chat-box" viewBox="0 0 32 32">
<path d="M16.073 0c-0.009 0-0.026 0-0.051 0-8.677 0-15.733 7.056-15.733 15.733 0 3.541 1.209 6.979 3.421 9.748l-2.289 5.324c-0.189 0.437 0.017 0.943 0.446 1.123 0.154 0.069 0.326 0.086 0.489 0.060l8.394-1.475c1.68 0.609 3.447 0.917 5.23 0.909 8.677 0 15.733-7.056 15.733-15.733 0.017-8.651-6.988-15.681-15.639-15.69zM10.689 12.569h4.63c0.472 0 0.857 0.386 0.857 0.857s-0.386 0.857-0.857 0.857h-4.63c-0.472 0-0.857-0.386-0.857-0.857s0.386-0.857 0.857-0.857zM21.32 18.571h-10.631c-0.472 0-0.857-0.386-0.857-0.857s0.386-0.857 0.857-0.857h10.631c0.472 0 0.857 0.386 0.857 0.857s-0.386 0.857-0.857 0.857z"></path>
</symbol>
<symbol id="icon-chess" viewBox="0 0 32 32">
<path d="M22.548 26.469c-0.136-3.507-1.194-4.566-2.135-5.507-0.789-0.789-1.479-1.479-1.586-4.191 1.084-0.391 1.86-1.43 1.86-2.646v-1h0.938c0.518 0 0.938-0.42 0.938-0.938 0-2.011-1.273-3.73-3.056-4.394 0.734-0.828 1.181-1.915 1.181-3.106 0-2.585-2.103-4.688-4.688-4.688s-4.688 2.103-4.688 4.688c0 1.191 0.447 2.278 1.181 3.106-1.783 0.664-3.056 2.383-3.056 4.394 0 0.518 0.42 0.938 0.938 0.938h0.938v1c0 1.217 0.777 2.255 1.86 2.646-0.107 2.712-0.797 3.402-1.586 4.191-0.941 0.941-1.999 2-2.135 5.507-1.099 0.383-1.89 1.429-1.89 2.656v1.938c0 0.518 0.42 0.938 0.937 0.938h15c0.518 0 0.938-0.42 0.938-0.938v-1.938c0-1.228-0.791-2.273-1.89-2.656zM16 1.875c1.551 0 2.813 1.262 2.813 2.813s-1.262 2.813-2.813 2.813-2.813-1.262-2.813-2.813 1.262-2.813 2.813-2.813zM14.125 9.375h3.75c1.222 0 2.265 0.784 2.652 1.875h-9.054c0.387-1.091 1.43-1.875 2.652-1.875zM18.813 13.125v1c0 0.517-0.421 0.938-0.938 0.938h-3.75c-0.517 0-0.938-0.421-0.938-0.938v-1zM12.913 22.288c0.927-0.927 1.968-1.968 2.128-5.35h1.918c0.161 3.383 1.201 4.424 2.128 5.35 0.772 0.772 1.45 1.45 1.578 4.025h-9.331c0.129-2.574 0.806-3.252 1.578-4.025zM22.563 30.125h-13.125v-1c0-0.517 0.421-0.938 0.938-0.938h11.25c0.517 0 0.938 0.421 0.938 0.938z"></path>
</symbol>
<symbol id="icon-clock" viewBox="0 0 32 32">
<path d="M16 0c-8.837 0-16 7.163-16 16s7.163 16 16 16 16-7.163 16-16c-0.009-8.833-7.167-15.991-16-16zM17.143 16c0 0.631-0.512 1.143-1.143 1.143h-9.143c-0.631 0-1.143-0.512-1.143-1.143s0.512-1.143 1.143-1.143h8v-8c0-0.631 0.512-1.143 1.143-1.143s1.143 0.512 1.143 1.143v9.143z"></path>
</symbol>
<symbol id="icon-correct" viewBox="0 0 32 32">
<path d="M11.19 27.215c-0.402 0-0.804-0.154-1.11-0.46l-9.619-9.619c-0.614-0.614-0.614-1.607 0-2.221s1.606-0.614 2.221 0l8.509 8.509 18.129-18.128c0.614-0.614 1.606-0.614 2.221 0s0.614 1.607 0 2.221l-19.239 19.239c-0.306 0.306-0.709 0.46-1.111 0.46z"></path>
</symbol>
<symbol id="icon-financial" viewBox="0 0 32 32">
<path d="M0.667 26.666h29.333c0.369 0 0.667-0.299 0.667-0.667v-1.691c0.343-0.053 0.643-0.197 0.877-0.431 0.325-0.325 0.482-0.769 0.453-1.285-0.043-0.791-0.534-1.727-1.331-2.591v-14.002c0-0.368-0.298-0.667-0.667-0.667h-29.333c-0.369 0-0.667 0.299-0.667 0.667v20c0 0.368 0.298 0.667 0.667 0.667zM29.333 25.333h-28v-2h26.726c0.425 0.339 0.855 0.597 1.273 0.767v1.233zM6 22h-2v-6.667h2v6.667zM12 22h-2v-10h2v10zM18 22h-2v-2h2v2zM30.778 23.113c-0.029 0.029-0.073 0.043-0.112 0.064-0.099 0.053-0.217 0.086-0.367 0.077-0.262-0.015-0.597-0.137-0.966-0.349-0.357-0.206-0.746-0.499-1.145-0.905-0.173-0.176-0.347-0.369-0.52-0.585-1.179-1.471-1.711-2.711-1.741-3.152 0.537 0.039 1.793 0.646 3.155 1.738 0.089 0.072 0.169 0.145 0.251 0.217 0.645 0.565 1.085 1.141 1.333 1.634 0.154 0.306 0.238 0.582 0.25 0.799 0.017 0.306-0.1 0.422-0.138 0.461zM22.25 18.216c-2.174 0-3.943-1.769-3.943-3.943s1.769-3.943 3.943-3.943 3.943 1.769 3.943 3.943-1.769 3.943-3.943 3.943zM1.333 6.667h28v12.165c-1.013-0.757-2.005-1.302-2.77-1.53 0.604-0.858 0.963-1.901 0.963-3.029 0-2.909-2.367-5.276-5.276-5.276s-5.276 2.367-5.276 5.276 2.367 5.276 5.276 5.276c0.984 0 1.903-0.276 2.692-0.747 0.325 1.235 1.465 2.758 1.809 3.197h-7.417v-2.667c0-0.368-0.298-0.667-0.667-0.667h-3.333c-0.369 0-0.667 0.299-0.667 0.667v2.667h-1.333v-10.666c0-0.368-0.298-0.667-0.667-0.667h-3.333c-0.369 0-0.667 0.299-0.667 0.667v10.666h-1.333v-7.333c0-0.368-0.298-0.667-0.667-0.667h-3.333c-0.369 0-0.667 0.299-0.667 0.667v7.333h-1.333v-15.333z"></path>
<path d="M22.555 11.549c-0.369 0-0.667 0.299-0.667 0.667s0.298 0.667 0.667 0.667c0.617 0 1.118 0.501 1.118 1.117 0 0.368 0.298 0.667 0.667 0.667s0.667-0.299 0.667-0.667c0-1.351-1.1-2.451-2.451-2.451z"></path>
</symbol>
<symbol id="icon-geometry" viewBox="0 0 32 32">
<path d="M30.75 22c0.69 0 1.25-0.56 1.25-1.25v-1.875c0-2.757-2.243-5-5-5h-1.625v-0.313c0-2.412-1.963-4.375-4.375-4.375h-2.438v-0.813c0-2.068-1.682-3.75-3.75-3.75h-2.938v-0.875c0-2.068-1.682-3.75-3.75-3.75h-4.375c-2.068 0-3.75 1.682-3.75 3.75v4.375c0 2.068 1.682 3.75 3.75 3.75h0.875v2.938c0 2.068 1.682 3.75 3.75 3.75h0.875v2.375c0 2.412 1.963 4.375 4.375 4.375h0.25v1.688c0 2.757 2.243 5 5 5h8.125c2.757 0 5-2.243 5-5 0-0.69-0.56-1.25-1.25-1.25s-1.25 0.56-1.25 1.25c0 1.378-1.122 2.5-2.5 2.5h-8.125c-1.378 0-2.5-1.122-2.5-2.5v-8.125c0-1.378 1.122-2.5 2.5-2.5h8.125c1.378 0 2.5 1.122 2.5 2.5v1.875c0 0.69 0.56 1.25 1.25 1.25zM4.625 8.375v1h-0.875c-0.689 0-1.25-0.561-1.25-1.25v-4.375c0-0.689 0.561-1.25 1.25-1.25h4.375c0.689 0 1.25 0.561 1.25 1.25v0.875h-1c-2.068 0-3.75 1.682-3.75 3.75zM9.25 13.563v2.5h-0.875c-0.689 0-1.25-0.561-1.25-1.25v-6.438c0-0.689 0.561-1.25 1.25-1.25h6.438c0.689 0 1.25 0.561 1.25 1.25v0.813h-2.438c-2.412 0-4.375 1.963-4.375 4.375zM22.875 13.875h-4c-2.757 0-5 2.243-5 5v3.938h-0.25c-1.034 0-1.875-0.841-1.875-1.875v-7.375c0-1.034 0.841-1.875 1.875-1.875h7.375c1.034 0 1.875 0.841 1.875 1.875v0.313z"></path>
</symbol>
<symbol id="icon-google-maps" viewBox="0 0 32 32">
<path d="M10.411 11.603l-4.709 4.709c0.944 2.519 2.46 4.628 4.008 6.466l5.938-5.938c-2.816-0.178-5.058-2.421-5.237-5.237z"></path>
<path d="M7.417 3.993c-1.66 1.961-2.667 4.492-2.667 7.257 0 1.069 0.147 2.056 0.353 3.009l6.29-6.29z"></path>
<path d="M21.589 10.897l4.53-4.53c-1.105-2.282-2.955-4.131-5.237-5.237l-4.53 4.53c2.816 0.178 5.058 2.421 5.237 5.237z"></path>
<path d="M13.718 8.295l-0.672 0.672c-0.491 0.634-0.795 1.42-0.795 2.282 0 2.068 1.682 3.75 3.75 3.75 0.863 0 1.648-0.304 2.282-0.795l0.672-0.672c0.491-0.634 0.795-1.42 0.795-2.282 0-2.068-1.682-3.75-3.75-3.75-0.863 0-1.648 0.304-2.282 0.795z"></path>
<path d="M20.274 14.864c-0.202 0.239-0.422 0.458-0.661 0.661l-8.678 8.678c0.091 0.103 0.185 0.212 0.274 0.313 2.067 2.337 3.853 4.481 3.853 6.547 0 0.518 0.419 0.938 0.938 0.938s0.938-0.419 0.938-0.938c0-2.066 1.785-4.21 3.853-6.547 2.878-3.255 6.46-7.304 6.46-13.265 0-1.024-0.149-2.011-0.407-2.955z"></path>
<path d="M8.743 2.667l3.976 3.976 6.236-6.236c-0.943-0.258-1.931-0.407-2.955-0.407-2.765 0-5.296 1.007-7.257 2.667z"></path>
</symbol>
<symbol id="icon-infographic" viewBox="0 0 32 32">
<path d="M15.859 32c-0.175 0-0.345-0.069-0.472-0.195-0.157-0.157-0.227-0.384-0.183-0.603l0.943-4.715c0.027-0.129 0.088-0.248 0.183-0.34l10.371-10.371c0.779-0.78 2.049-0.78 2.828 0l1.885 1.885c0.78 0.78 0.78 2.048 0 2.828l-10.371 10.371c-0.092 0.093-0.211 0.156-0.341 0.183l-4.713 0.943c-0.043 0.009-0.087 0.013-0.129 0.013zM17.416 26.948l-0.707 3.536 3.535-0.707 10.228-10.228c0.26-0.26 0.26-0.683 0-0.943l-1.885-1.885c-0.26-0.26-0.683-0.26-0.943 0zM20.572 30.391h0.013z"></path>
<path d="M12.667 28h-9.333c-1.839 0-3.333-1.496-3.333-3.333v-21.333c0-1.837 1.495-3.333 3.333-3.333h14.667c1.839 0 3.333 1.496 3.333 3.333v14.667c0 0.368-0.299 0.667-0.667 0.667s-0.667-0.299-0.667-0.667v-14.667c0-1.103-0.897-2-2-2h-14.667c-1.103 0-2 0.897-2 2v21.333c0 1.103 0.897 2 2 2h9.333c0.368 0 0.667 0.299 0.667 0.667s-0.299 0.667-0.667 0.667z"></path>
<path d="M16.667 20c-0.368 0-0.667-0.299-0.667-0.667v-11.333h-2.667v11.333c0 0.368-0.299 0.667-0.667 0.667s-0.667-0.299-0.667-0.667v-12c0-0.368 0.299-0.667 0.667-0.667h4c0.368 0 0.667 0.299 0.667 0.667v12c0 0.368-0.299 0.667-0.667 0.667z"></path>
<path d="M8.667 20h-4c-0.368 0-0.667-0.299-0.667-0.667v-6.667c0-0.368 0.299-0.667 0.667-0.667h4c0.368 0 0.667 0.299 0.667 0.667v6.667c0 0.368-0.299 0.667-0.667 0.667zM5.333 18.667h2.667v-5.333h-2.667z"></path>
<path d="M16.667 20h-13.333c-0.368 0-0.667-0.299-0.667-0.667s0.299-0.667 0.667-0.667h13.333c0.368 0 0.667 0.299 0.667 0.667s-0.299 0.667-0.667 0.667z"></path>
</symbol>
<symbol id="icon-information-1" viewBox="0 0 32 32">
<path d="M23.333 14.667c-4.779 0-8.667 3.888-8.667 8.667s3.888 8.667 8.667 8.667 8.667-3.888 8.667-8.667-3.888-8.667-8.667-8.667zM24.667 28c0 0.736-0.596 1.333-1.333 1.333s-1.333-0.597-1.333-1.333v-4.667c0-0.736 0.596-1.333 1.333-1.333s1.333 0.597 1.333 1.333zM23.333 20c-0.736 0-1.333-0.597-1.333-1.333s0.597-1.333 1.333-1.333 1.333 0.597 1.333 1.333-0.597 1.333-1.333 1.333z"></path>
<path d="M23.333 12c0.227 0 0.44 0 0.667 0.013v-0.013zM0 20h12.493c1.44-4.64 5.747-8 10.84-8h-23.333z"></path>
<path d="M12 23.333c0-0.227 0-0.44 0.013-0.667h-12.013v5.667c0 2.027 1.64 3.667 3.667 3.667h12.36c-2.467-2.080-4.027-5.2-4.027-8.667z"></path>
<path d="M20.333 0h-16.667c-2.027 0-3.667 1.64-3.667 3.667v5.667h24v-5.667c0-2.027-1.64-3.667-3.667-3.667zM4.667 6.667c-1.107 0-2-0.893-2-2s0.893-2 2-2 2 0.893 2 2-0.893 2-2 2zM11.333 6.667c-1.107 0-2-0.893-2-2s0.893-2 2-2 2 0.893 2 2-0.893 2-2 2zM18 6.667c-1.107 0-2-0.893-2-2s0.893-2 2-2 2 0.893 2 2-0.893 2-2 2z"></path>
</symbol>
<symbol id="icon-information" viewBox="0 0 32 32">
<path d="M21.625 7.5h6.013l-6.951-6.951v6.013c0 0.517 0.42 0.938 0.938 0.938z"></path>
<path d="M6.625 32h18.75c1.551 0 2.813-1.262 2.813-2.813v-19.813h-6.563c-1.551 0-2.813-1.262-2.813-2.813v-6.563h-12.188c-1.551 0-2.813 1.262-2.813 2.813v26.375c0 1.551 1.262 2.813 2.813 2.813zM12.25 15.063h9.375c0.518 0 0.938 0.419 0.938 0.938s-0.419 0.938-0.938 0.938h-9.375c-0.518 0-0.938-0.419-0.938-0.938s0.419-0.938 0.938-0.938zM12.25 18.813h9.375c0.518 0 0.938 0.419 0.938 0.938s-0.419 0.938-0.938 0.938h-9.375c-0.518 0-0.938-0.419-0.938-0.938s0.419-0.938 0.938-0.938zM12.25 22.563h9.375c0.518 0 0.938 0.419 0.938 0.938s-0.419 0.938-0.938 0.938h-9.375c-0.518 0-0.938-0.419-0.938-0.938s0.419-0.938 0.938-0.938zM8.5 15.063c0.518 0 0.938 0.42 0.938 0.938s-0.42 0.938-0.938 0.938-0.938-0.42-0.938-0.938 0.42-0.938 0.938-0.938zM8.5 18.813c0.518 0 0.938 0.42 0.938 0.938s-0.42 0.938-0.938 0.938-0.938-0.42-0.938-0.938 0.42-0.938 0.938-0.938zM8.5 22.563c0.518 0 0.938 0.42 0.938 0.938s-0.42 0.938-0.938 0.938-0.938-0.42-0.938-0.938 0.42-0.938 0.938-0.938z"></path>
</symbol>
<symbol id="icon-insight" viewBox="0 0 32 32">
<path d="M18.15 16.824l-5.237-5.237c-0.366-0.366-0.96-0.366-1.326 0l-0.663 0.663 7.225 7.225c0.366 0.366 0.959 0.366 1.326 0l10.708-10.708c-0.296-0.578-0.614-1.142-0.975-1.676l-9.733 9.733c-0.366 0.366-0.959 0.366-1.326 0z"></path>
<path d="M1.226 21.949c0.25 0.618 0.534 1.218 0.856 1.795l8.842-8.842-1.326-1.326z"></path>
<path d="M20.801 20.801c-0.548 0.548-1.268 0.822-1.988 0.822s-1.44-0.274-1.988-0.822l-4.574-4.574-9.126 9.126c2.9 3.981 7.585 6.647 12.876 6.647 8.788 0 16-7.212 16-16 0-1.89-0.41-3.697-1.017-5.381z"></path>
<path d="M0 16c0 1.364 0.253 2.681 0.577 3.946l9.684-9.684c1.097-1.097 2.88-1.097 3.977 0l4.574 4.574 9.236-9.236c-2.925-3.383-7.236-5.599-12.049-5.599-8.788 0-16 7.212-16 16z"></path>
</symbol>
<symbol id="icon-link" viewBox="0 0 32 32">
<path d="M29.667 2.359c-0.293-0.293-0.601-0.563-0.914-0.803l-0.060-0.046c-0.038-0.036-0.079-0.070-0.121-0.101-1.27-0.935-2.663-1.409-4.141-1.409-2.306 0-4.704 1.177-6.936 3.404-0.022 0.022-0.043 0.044-0.063 0.067l-0.098 0.113-0.114 0.098c-0.023 0.020-0.046 0.041-0.067 0.062-2.227 2.231-3.404 4.629-3.404 6.936 0 0.986 0.23 1.968 0.685 2.919 0.024 0.049 0.050 0.097 0.080 0.142 0.094 0.145 0.44 0.672 0.809 1.165l-5.145 5.145c-0.488 0.488-0.488 1.28 0 1.768 0.244 0.244 0.564 0.366 0.884 0.366s0.64-0.122 0.884-0.366l3.005-3.005c0.129 0.224 0.257 0.459 0.363 0.67 0.289 0.608 0.436 1.225 0.436 1.831 0 1.621-0.913 3.397-2.642 5.138l-0.147 0.127c-0.046 0.040-0.089 0.082-0.128 0.128l-0.127 0.147c-1.743 1.729-3.519 2.642-5.138 2.642-0.901 0-1.766-0.29-2.573-0.861-0.026-0.023-0.052-0.046-0.080-0.067l-0.147-0.113c-0.227-0.174-0.452-0.372-0.668-0.588-1.061-1.060-1.599-2.217-1.599-3.439 0-1.621 0.913-3.397 2.642-5.138l0.147-0.127c0.045-0.039 0.088-0.082 0.127-0.127l0.127-0.147c1.652-1.639 3.326-2.553 4.844-2.645 0.689-0.042 1.214-0.634 1.172-1.323s-0.634-1.214-1.323-1.172c-2.177 0.131-4.361 1.276-6.492 3.402-0.022 0.022-0.042 0.044-0.062 0.067l-0.099 0.114-0.114 0.099c-0.023 0.020-0.045 0.041-0.067 0.062-2.227 2.23-3.404 4.629-3.404 6.936 0 1.91 0.785 3.663 2.333 5.209 0.293 0.293 0.601 0.563 0.914 0.803l0.060 0.046c0.038 0.036 0.079 0.070 0.121 0.102 1.27 0.935 2.663 1.409 4.141 1.409 2.306 0 4.704-1.177 6.936-3.404 0.022-0.022 0.043-0.044 0.063-0.067l0.098-0.113 0.114-0.098c0.023-0.020 0.046-0.041 0.067-0.062 2.227-2.23 3.404-4.629 3.404-6.936 0-0.986-0.23-1.968-0.685-2.919-0.003-0.007-0.006-0.014-0.010-0.020-0.085-0.17-0.404-0.796-0.787-1.38l5.052-5.052c0.488-0.488 0.488-1.28 0-1.768s-1.28-0.488-1.768 0l-2.94 2.94c-0.164-0.23-0.328-0.471-0.457-0.667-0.27-0.588-0.407-1.184-0.407-1.77 0-1.621 0.913-3.397 2.642-5.138l0.147-0.127c0.046-0.040 0.089-0.082 0.128-0.128l0.127-0.147c1.743-1.729 3.519-2.642 5.138-2.642 0.901 0 1.766 0.289 2.573 0.861 0.026 0.023 0.052 0.046 0.080 0.067l0.147 0.113c0.227 0.174 0.452 0.372 0.669 0.588 1.061 1.060 1.599 2.217 1.599 3.439 0 1.621-0.913 3.397-2.642 5.138l-0.147 0.127c-0.045 0.039-0.088 0.082-0.127 0.127l-0.127 0.147c-1.607 1.593-3.303 2.486-4.907 2.582-0.689 0.042-1.214 0.634-1.172 1.323 0.040 0.663 0.591 1.175 1.247 1.175 0.025 0 0.051-0.001 0.076-0.002 2.233-0.135 4.499-1.29 6.554-3.34 0.022-0.022 0.042-0.044 0.062-0.067l0.099-0.114 0.114-0.099c0.023-0.020 0.045-0.040 0.067-0.062 2.227-2.23 3.404-4.629 3.404-6.936 0-1.911-0.785-3.663-2.332-5.209z"></path>
</symbol>
<symbol id="icon-list" viewBox="0 0 32 32">
<path d="M25 0h-18c-3.866 0-7 3.134-7 7v18c0 3.866 3.134 7 7 7h18c3.866 0 7-3.134 7-7v-18c0-3.866-3.134-7-7-7zM30 25c0 2.761-2.239 5-5 5h-18c-2.761 0-5-2.239-5-5v-18c0-2.761 2.239-5 5-5h18c2.761 0 5 2.239 5 5v18z"></path>
<path d="M13 8h12v2h-12v-2z"></path>
<path d="M13 15h12v2h-12v-2z"></path>
<path d="M13 22h12v2h-12v-2z"></path>
<path d="M11 9c0 1.105-0.895 2-2 2s-2-0.895-2-2c0-1.105 0.895-2 2-2s2 0.895 2 2z"></path>
<path d="M11 16c0 1.105-0.895 2-2 2s-2-0.895-2-2c0-1.105 0.895-2 2-2s2 0.895 2 2z"></path>
<path d="M11 23c0 1.105-0.895 2-2 2s-2-0.895-2-2c0-1.105 0.895-2 2-2s2 0.895 2 2z"></path>
</symbol>
<symbol id="icon-magnifying-glass" viewBox="0 0 32 32">
<path d="M25.529 14.631c-0.439 0-0.796 0.357-0.796 0.796s0.357 0.796 0.796 0.796c0.439 0 0.796-0.357 0.796-0.796s-0.357-0.796-0.796-0.796z"></path>
<path d="M29.44 9.502h-26.88c-1.412 0-2.56 1.149-2.56 2.56v7.876c0 1.412 1.148 2.56 2.56 2.56h26.88c1.412 0 2.56-1.148 2.56-2.56v-7.876c-0-1.412-1.149-2.56-2.56-2.56zM16.73 19.233h-12.499c-0.518 0-0.938-0.42-0.938-0.938s0.42-0.938 0.938-0.938h12.499c0.518 0 0.938 0.42 0.938 0.938s-0.42 0.938-0.938 0.938zM25.529 18.101c-0.361 0-0.705-0.072-1.020-0.203l-1.182 1.182c-0.183 0.183-0.423 0.275-0.663 0.275s-0.48-0.092-0.663-0.275c-0.366-0.366-0.366-0.96 0-1.327l1.136-1.136c-0.179-0.358-0.28-0.762-0.28-1.189 0-1.474 1.199-2.673 2.673-2.673s2.673 1.199 2.673 2.673c0 1.474-1.199 2.673-2.673 2.673z"></path>
</symbol>
<symbol id="icon-photo" viewBox="0 0 32 32">
<path d="M8.333 24.708c-2.135 0-4.033-1.367-4.723-3.401l-0.047-0.153c-0.163-0.539-0.231-0.992-0.231-1.445v-9.091l-3.235 10.798c-0.416 1.588 0.532 3.235 2.123 3.673l20.618 5.522c0.257 0.067 0.515 0.099 0.768 0.099 1.328 0 2.541-0.881 2.881-2.18l1.201-3.82z"></path>
<path d="M12 10.708c1.471 0 2.667-1.196 2.667-2.667s-1.196-2.667-2.667-2.667-2.667 1.196-2.667 2.667 1.196 2.667 2.667 2.667z"></path>
<path d="M28.666 1.374h-20c-1.837 0-3.333 1.496-3.333 3.334v14.667c0 1.837 1.496 3.334 3.333 3.334h20c1.837 0 3.334-1.496 3.334-3.334v-14.667c0-1.837-1.496-3.334-3.334-3.334zM8.666 4.041h20.001c0.368 0 0.667 0.299 0.667 0.667v9.466l-4.212-4.915c-0.447-0.524-1.094-0.804-1.788-0.82-0.691 0.004-1.339 0.311-1.781 0.841l-4.952 5.944-1.613-1.609c-0.912-0.912-2.396-0.912-3.307 0l-3.68 3.679v-12.585c0-0.368 0.299-0.667 0.667-0.667z"></path>
</symbol>
<symbol id="icon-profile" viewBox="0 0 32 32">
<path d="M16 0c-8.823 0-16 7.177-16 16s7.177 16 16 16 16-7.177 16-16-7.177-16-16-16zM24.371 28.027l-3.405-1.136-0.272-1.087c3.308-0.563 5.015-1.556 5.089-1.6 0.189-0.111 0.307-0.312 0.323-0.531s-0.083-0.435-0.253-0.571c-0.023-0.017-2.26-1.871-2.26-8.287 0-5.456-1.283-8.223-3.815-8.223h-0.357c-0.904-0.873-1.591-1.26-3.42-1.26-2.379 0-7.592 2.388-7.592 9.481 0 6.416-2.237 8.269-2.252 8.281-0.177 0.133-0.277 0.345-0.267 0.567 0.012 0.223 0.132 0.423 0.323 0.537 0.075 0.045 1.764 1.043 5.093 1.605l-0.271 1.084-3.405 1.136c-3.8-2.652-6.296-7.049-6.296-12.025 0-8.087 6.58-14.667 14.667-14.667s14.667 6.58 14.667 14.667c0 4.976-2.496 9.373-6.296 12.027z"></path>
</symbol>
<symbol id="icon-question" viewBox="0 0 32 32">
<path d="M0 9.479v13.043c0 1.767 1.437 3.204 3.204 3.204h9.031v-19.451h-9.031c-1.767 0-3.204 1.437-3.204 3.204zM6.588 21.961h-1.882v-1.882h1.882zM5.937 9.726h0.361c1.717 0 3.114 1.397 3.114 3.114 0 1.13-0.614 2.173-1.602 2.722l-1.222 0.679v1.956h-1.882v-3.064l2.19-1.217c0.391-0.217 0.633-0.63 0.633-1.076 0-0.679-0.552-1.231-1.231-1.231h-0.361c-0.679 0-1.231 0.552-1.231 1.231v0.651h-1.882v-0.651c0-1.717 1.397-3.114 3.114-3.114z"></path>
<path d="M28.796 6.274h-14.678v19.451h14.678c1.767 0 3.204-1.437 3.204-3.204v-13.043c0-1.767-1.437-3.204-3.204-3.204zM22.588 20.706h-5.647v-1.882h5.647zM25.412 16.941h-8.471v-1.882h8.471zM29.176 13.176h-12.235v-1.882h12.235z"></path>
</symbol>
<symbol id="icon-rate" viewBox="0 0 32 32">
<path d="M19.843 15.473c0.198 0 0.393-0.062 0.557-0.181 0.253-0.184 0.399-0.481 0.39-0.793l-0.104-3.74 2.283-2.964c0.191-0.248 0.247-0.574 0.151-0.871s-0.334-0.528-0.634-0.617l-3.589-1.057-2.114-3.087c-0.177-0.258-0.469-0.412-0.782-0.412s-0.605 0.154-0.782 0.412l-2.114 3.087-3.589 1.057c-0.3 0.088-0.537 0.319-0.634 0.617s-0.041 0.624 0.15 0.871l2.283 2.964-0.104 3.74c-0.009 0.313 0.137 0.61 0.39 0.793s0.581 0.231 0.875 0.126l3.525-1.255 3.525 1.255c0.103 0.037 0.211 0.055 0.318 0.055z"></path>
<path d="M13.651 21.081l-3.589-1.056-2.114-3.087c-0.177-0.258-0.469-0.413-0.782-0.413s-0.605 0.154-0.782 0.413l-2.114 3.087-3.589 1.056c-0.3 0.088-0.537 0.319-0.634 0.617s-0.040 0.624 0.15 0.871l2.283 2.964-0.104 3.74c-0.009 0.313 0.137 0.61 0.39 0.793s0.581 0.231 0.875 0.126l3.525-1.255 3.525 1.255c0.104 0.037 0.211 0.055 0.318 0.055 0.198 0 0.393-0.062 0.557-0.181 0.253-0.184 0.399-0.481 0.39-0.793l-0.104-3.74 2.283-2.964c0.191-0.248 0.247-0.574 0.151-0.871s-0.334-0.528-0.634-0.617z"></path>
<path d="M31.954 21.697c-0.097-0.298-0.334-0.528-0.634-0.617l-3.589-1.056-2.114-3.087c-0.177-0.258-0.469-0.413-0.782-0.413s-0.605 0.154-0.782 0.413l-2.114 3.087-3.589 1.056c-0.3 0.088-0.537 0.319-0.634 0.617s-0.040 0.624 0.15 0.871l2.283 2.964-0.104 3.74c-0.009 0.313 0.137 0.61 0.39 0.793s0.581 0.231 0.875 0.126l3.525-1.255 3.525 1.255c0.104 0.037 0.211 0.055 0.318 0.055 0.198 0 0.393-0.062 0.557-0.181 0.253-0.184 0.399-0.481 0.39-0.793l-0.104-3.74 2.283-2.964c0.191-0.248 0.247-0.574 0.15-0.871z"></path>
</symbol>
<symbol id="icon-research" viewBox="0 0 32 32">
<path d="M32 4.571h-32v16h32zM25.143 17.143h-18.286c-2.525 0-4.571-2.047-4.571-4.571s2.047-4.571 4.571-4.571h18.286c2.525 0 4.571 2.047 4.571 4.571s-2.047 4.571-4.571 4.571z"></path>
<path d="M24 12c0 0.316-0.256 0.571-0.571 0.571s-0.571-0.256-0.571-0.571 0.256-0.571 0.571-0.571 0.571 0.256 0.571 0.571z"></path>
<path d="M25.143 9.143h-4.571v6.857h4.571c1.893 0 3.429-1.535 3.429-3.429s-1.535-3.429-3.429-3.429zM25.31 14.69l-1.147-1.147c-0.229 0.112-0.48 0.17-0.734 0.171-0.947 0-1.714-0.768-1.714-1.714s0.768-1.714 1.714-1.714 1.714 0.768 1.714 1.714c-0.001 0.254-0.060 0.506-0.171 0.734l1.147 1.147z"></path>
<path d="M3.429 12.571c0.002 1.893 1.536 3.427 3.429 3.429h12.571v-6.857h-12.571c-1.893 0.002-3.427 1.536-3.429 3.429zM13.143 12h1.143v1.143h-1.143zM10.857 12h1.143v1.143h-1.143zM8.571 12h1.143v1.143h-1.143z"></path>
<path d="M12.504 26.286l-0.429 3.429h7.848l-0.429-3.429z"></path>
<path d="M32 1.714c0-0.947-0.768-1.714-1.714-1.714h-28.571c-0.947 0-1.714 0.768-1.714 1.714v1.714h32zM3.429 2.286h-1.143v-1.143h1.143zM5.714 2.286h-1.143v-1.143h1.143zM8 2.286h-1.143v-1.143h1.143z"></path>
<path d="M9.143 31.429c0 0.316 0.256 0.571 0.571 0.571h12.571c0.316 0 0.571-0.256 0.571-0.571s-0.256-0.571-0.571-0.571h-12.571c-0.316 0-0.571 0.256-0.571 0.571z"></path>
<path d="M32 21.714h-32v1.714c0 0.947 0.768 1.714 1.714 1.714h28.571c0.947 0 1.714-0.768 1.714-1.714zM29.714 24h-1.143v-1.143h1.143z"></path>
</symbol>
<symbol id="icon-right-arrow" viewBox="0 0 32 32">
<path d="M31.709 15.295l-10-10-1.42 1.42 8.3 8.29h-28.589v2h28.589l-8.29 8.29 1.41 1.41 10-10c0.388-0.39 0.388-1.020 0-1.41z"></path>
</symbol>
<symbol id="icon-search-1" viewBox="0 0 32 32">
<path d="M31.609 29.724l-3.387-3.387c0.699-1.055 1.111-2.315 1.111-3.671 0-3.676-2.991-6.667-6.667-6.667s-6.667 2.991-6.667 6.667 2.991 6.667 6.667 6.667c1.356 0 2.616-0.412 3.671-1.111l3.387 3.387c0.521 0.521 1.364 0.521 1.885 0s0.521-1.364 0-1.885zM22.667 26.667c-2.205 0-4-1.795-4-4s1.795-4 4-4 4 1.795 4 4-1.795 4-4 4z"></path>
<path d="M25.333 0h-21.333c-2.209 0-4 1.791-4 4s1.791 4 4 4h21.333c2.209 0 4-1.791 4-4s-1.791-4-4-4zM4 5.333c-0.736 0-1.333-0.597-1.333-1.333s0.597-1.333 1.333-1.333 1.333 0.597 1.333 1.333-0.597 1.333-1.333 1.333zM9.333 5.333c-0.736 0-1.333-0.597-1.333-1.333s0.597-1.333 1.333-1.333 1.333 0.597 1.333 1.333-0.597 1.333-1.333 1.333z"></path>
<path d="M25.333 10.667h-21.333c-2.213 0-4 1.787-4 4s1.787 4 4 4h10.24c1.493-3.147 4.707-5.333 8.427-5.333 2.507 0 4.773 0.987 6.453 2.6 0.147-0.4 0.213-0.827 0.213-1.267 0-2.213-1.787-4-4-4zM4 16c-0.733 0-1.333-0.6-1.333-1.333s0.6-1.333 1.333-1.333 1.333 0.6 1.333 1.333-0.6 1.333-1.333 1.333zM9.333 16c-0.733 0-1.333-0.6-1.333-1.333s0.6-1.333 1.333-1.333 1.333 0.6 1.333 1.333-0.6 1.333-1.333 1.333z"></path>
<path d="M13.333 22.667c0-0.453 0.027-0.893 0.107-1.333h-9.44c-2.213 0-4 1.787-4 4s1.787 4 4 4h12.147c-1.733-1.693-2.813-4.053-2.813-6.667zM4 26.667c-0.733 0-1.333-0.6-1.333-1.333s0.6-1.333 1.333-1.333 1.333 0.6 1.333 1.333-0.6 1.333-1.333 1.333zM9.333 26.667c-0.733 0-1.333-0.6-1.333-1.333s0.6-1.333 1.333-1.333 1.333 0.6 1.333 1.333-0.6 1.333-1.333 1.333z"></path>
</symbol>
<symbol id="icon-search" viewBox="0 0 32 32">
<path d="M18.875 0c-7.237 0-13.125 5.888-13.125 13.125 0 3.184 1.14 6.107 3.032 8.382l-8.413 8.356c-0.49 0.486-0.492 1.278-0.006 1.768 0.244 0.246 0.566 0.369 0.887 0.369 0.318 0 0.637-0.121 0.881-0.363l8.425-8.367c2.266 1.862 5.165 2.981 8.319 2.981 2.252 0 4.474-0.58 6.425-1.678 0.602-0.338 0.815-1.101 0.477-1.702s-1.101-0.815-1.702-0.477c-1.578 0.888-3.376 1.357-5.2 1.357-5.859 0-10.625-4.766-10.625-10.625s4.766-10.625 10.625-10.625 10.625 4.766 10.625 10.625c0 1.846-0.48 3.663-1.389 5.256-0.342 0.6-0.133 1.363 0.466 1.705s1.363 0.133 1.705-0.466c1.123-1.969 1.717-4.215 1.717-6.494 0-7.237-5.888-13.125-13.125-13.125z"></path>
</symbol>
<symbol id="icon-setup" viewBox="0 0 32 32">
<path d="M25 0h-18c-3.866 0-7 3.134-7 7v18c0 3.866 3.134 7 7 7h18c3.866 0 7-3.134 7-7v-18c0-3.866-3.134-7-7-7zM30 25c0 2.761-2.239 5-5 5h-18c-2.761 0-5-2.239-5-5v-18c0-2.761 2.239-5 5-5h18c2.761 0 5 2.239 5 5v18z"></path>
<path d="M9 9.18v-3.18h-2v3.18c-1.555 0.573-2.351 2.297-1.778 3.852 0.304 0.824 0.954 1.474 1.778 1.778v11.19h2v-11.18c1.557-0.565 2.362-2.286 1.796-3.844-0.303-0.835-0.961-1.493-1.796-1.796z"></path>
<path d="M17 17.19v-11.19h-2v11.18c-1.555 0.573-2.351 2.297-1.778 3.852 0.304 0.824 0.954 1.474 1.778 1.778v3.19h2v-3.18c1.555-0.573 2.351-2.297 1.778-3.852-0.304-0.824-0.954-1.474-1.778-1.778z"></path>
<path d="M25 11.19v-5.19h-2v5.18c-1.555 0.573-2.351 2.297-1.778 3.852 0.304 0.824 0.954 1.474 1.778 1.778v9.19h2v-9.18c1.555-0.573 2.351-2.297 1.778-3.852-0.304-0.824-0.954-1.474-1.778-1.778z"></path>
</symbol>
<symbol id="icon-shopping-bag" viewBox="0 0 32 32">
<path d="M27.46 29.099l-1.624-18.4c-0.122-1.386-1.264-2.432-2.656-2.432-0.32 0-0.58 0.26-0.58 0.58v2.869c0 0.284-0.215 0.532-0.498 0.55-0.311 0.020-0.569-0.226-0.569-0.532v-6.2c0-3.051-2.482-5.533-5.533-5.533s-5.533 2.482-5.533 5.533v2.733h-1.647c-1.392 0-2.534 1.046-2.656 2.432l-1.624 18.4c-0.137 1.555 1.090 2.901 2.657 2.901h17.607c1.567 0 2.793-1.347 2.657-2.901zM12.933 28.467h-3.867c-0.295 0-0.533-0.239-0.533-0.533s0.239-0.533 0.533-0.533h3.867c0.295 0 0.533 0.239 0.533 0.533s-0.239 0.533-0.533 0.533zM12.933 25.8h-3.867c-0.295 0-0.533-0.239-0.533-0.533s0.239-0.533 0.533-0.533h3.867c0.295 0 0.533 0.239 0.533 0.533s-0.239 0.533-0.533 0.533zM20.467 8.267h-7.287c-0.32 0-0.58 0.26-0.58 0.58v2.869c0 0.284-0.215 0.532-0.498 0.55-0.311 0.020-0.569-0.226-0.569-0.532v-6.2c0-2.463 2.004-4.467 4.467-4.467s4.467 2.004 4.467 4.467z"></path>
</symbol>
<symbol id="icon-shopping-online" viewBox="0 0 32 32">
<path d="M2.759 2.759c-0.249 0-0.467 0.167-0.532 0.407s0.039 0.494 0.253 0.62 0.487 0.093 0.665-0.081v-0.008h0.008c0.156-0.159 0.201-0.395 0.115-0.6s-0.287-0.338-0.509-0.338z"></path>
<path d="M2.207 30.345c0 0.609 0.494 1.103 1.103 1.103h19.862c0.609 0 1.103-0.494 1.103-1.103v-22.069c0-0.305-0.247-0.552-0.552-0.552h-20.966c-0.305 0-0.552 0.247-0.552 0.552zM20.414 12.138h1.655c0.305 0 0.552 0.247 0.552 0.552s-0.247 0.552-0.552 0.552h-1.655c-0.305 0-0.552-0.247-0.552-0.552s0.247-0.552 0.552-0.552zM20.414 17.655h1.655c0.305 0 0.552 0.247 0.552 0.552s-0.247 0.552-0.552 0.552h-1.655c-0.305 0-0.552-0.247-0.552-0.552s0.247-0.552 0.552-0.552zM20.414 23.172h1.655c0.305 0 0.552 0.247 0.552 0.552s-0.247 0.552-0.552 0.552h-1.655c-0.305 0-0.552-0.247-0.552-0.552s0.247-0.552 0.552-0.552zM20.414 28.69h1.655c0.305 0 0.552 0.247 0.552 0.552s-0.247 0.552-0.552 0.552h-1.655c-0.305 0-0.552-0.247-0.552-0.552s0.247-0.552 0.552-0.552zM13.793 12.138h4.414c0.305 0 0.552 0.247 0.552 0.552s-0.247 0.552-0.552 0.552h-4.414c-0.305 0-0.552-0.247-0.552-0.552s0.247-0.552 0.552-0.552zM13.793 17.655h4.414c0.305 0 0.552 0.247 0.552 0.552s-0.247 0.552-0.552 0.552h-4.414c-0.305 0-0.552-0.247-0.552-0.552s0.247-0.552 0.552-0.552zM13.793 23.172h4.414c0.305 0 0.552 0.247 0.552 0.552s-0.247 0.552-0.552 0.552h-4.414c-0.305 0-0.552-0.247-0.552-0.552s0.247-0.552 0.552-0.552zM13.793 28.69h4.414c0.305 0 0.552 0.247 0.552 0.552s-0.247 0.552-0.552 0.552h-4.414c-0.305 0-0.552-0.247-0.552-0.552s0.247-0.552 0.552-0.552zM4.414 9.931h4.414c0.305 0 0.552 0.247 0.552 0.552s-0.247 0.552-0.552 0.552h-4.414c-0.305 0-0.552-0.247-0.552-0.552s0.247-0.552 0.552-0.552zM4.414 12.138h7.172c0.305 0 0.552 0.247 0.552 0.552s-0.247 0.552-0.552 0.552h-7.172c-0.305 0-0.552-0.247-0.552-0.552s0.247-0.552 0.552-0.552zM4.414 15.448h4.414c0.305 0 0.552 0.247 0.552 0.552s-0.247 0.552-0.552 0.552h-4.414c-0.305 0-0.552-0.247-0.552-0.552s0.247-0.552 0.552-0.552zM4.414 17.655h7.172c0.305 0 0.552 0.247 0.552 0.552s-0.247 0.552-0.552 0.552h-7.172c-0.305 0-0.552-0.247-0.552-0.552s0.247-0.552 0.552-0.552zM4.414 20.966h4.414c0.305 0 0.552 0.247 0.552 0.552s-0.247 0.552-0.552 0.552h-4.414c-0.305 0-0.552-0.247-0.552-0.552s0.247-0.552 0.552-0.552zM4.414 23.172h7.172c0.305 0 0.552 0.247 0.552 0.552s-0.247 0.552-0.552 0.552h-7.172c-0.305 0-0.552-0.247-0.552-0.552s0.247-0.552 0.552-0.552zM4.414 26.483h4.414c0.305 0 0.552 0.247 0.552 0.552s-0.247 0.552-0.552 0.552h-4.414c-0.305 0-0.552-0.247-0.552-0.552s0.247-0.552 0.552-0.552zM4.414 28.69h7.172c0.305 0 0.552 0.247 0.552 0.552s-0.247 0.552-0.552 0.552h-7.172c-0.305 0-0.552-0.247-0.552-0.552s0.247-0.552 0.552-0.552z"></path>
<path d="M30.345 0.552h-22.621c-0.305 0-0.552 0.247-0.552 0.552v4.966c0 0.305 0.247 0.552 0.552 0.552h22.621c0.305 0 0.552-0.247 0.552-0.552v-4.966c0-0.305-0.247-0.552-0.552-0.552zM9.379 2.207h3.862c0.305 0 0.552 0.247 0.552 0.552s-0.247 0.552-0.552 0.552h-3.862c-0.305 0-0.552-0.247-0.552-0.552s0.247-0.552 0.552-0.552zM17.655 5.517h-8.276c-0.305 0-0.552-0.247-0.552-0.552s0.247-0.552 0.552-0.552h8.276c0.305 0 0.552 0.247 0.552 0.552s-0.247 0.552-0.552 0.552zM23.724 5.517h-3.862c-0.305 0-0.552-0.247-0.552-0.552s0.247-0.552 0.552-0.552h3.862c0.305 0 0.552 0.247 0.552 0.552s-0.247 0.552-0.552 0.552zM28.138 3.31h-12.69c-0.305 0-0.552-0.247-0.552-0.552s0.247-0.552 0.552-0.552h12.69c0.305 0 0.552 0.247 0.552 0.552s-0.247 0.552-0.552 0.552z"></path>
<path d="M5.517 0.552h-4.966c-0.305 0-0.552 0.247-0.552 0.552v4.966c0 0.305 0.247 0.552 0.552 0.552h4.966c0.305 0 0.552-0.247 0.552-0.552v-4.966c0-0.305-0.247-0.552-0.552-0.552zM4.804 5.356c-0.215 0.215-0.565 0.215-0.78 0l-0.556-0.556c-0.221 0.108-0.463 0.164-0.709 0.166-0.914 0-1.655-0.741-1.655-1.655s0.741-1.655 1.655-1.655 1.655 0.741 1.655 1.655c-0.001 0.246-0.058 0.488-0.166 0.709l0.556 0.556c0.215 0.216 0.215 0.565-0.001 0.78z"></path>
<path d="M31.448 11.034h-3.082l0.713-0.713c0.209-0.216 0.206-0.561-0.007-0.773s-0.557-0.216-0.773-0.007l-1.655 1.655c-0.215 0.215-0.215 0.565 0 0.78l1.655 1.655c0.216 0.209 0.561 0.206 0.773-0.007s0.216-0.557 0.007-0.773l-0.713-0.713h3.082c0.305 0 0.552-0.247 0.552-0.552s-0.247-0.552-0.552-0.552z"></path>
</symbol>
<symbol id="icon-tips" viewBox="0 0 32 32">
<path d="M28.333 0h-24.667c-2.023 0-3.667 1.644-3.667 3.667v18c0 2.023 1.644 3.667 3.667 3.667h1.667v5.667c0 0.404 0.244 0.769 0.617 0.924 0.124 0.051 0.253 0.076 0.383 0.076 0.26 0 0.516-0.101 0.707-0.293l6.373-6.373h14.92c2.023 0 3.667-1.644 3.667-3.667v-18c0-2.023-1.644-3.667-3.667-3.667zM18.72 18.521c0 0.813-0.667 1.48-1.493 1.48h-2.453c-0.72 0-1.493-0.533-1.493-1.72v-0.72h5.44zM19.8 14.575c-0.56 0.453-0.92 1.040-1.040 1.653h-5.507c-0.093-0.6-0.427-1.16-0.973-1.587-1.48-1.16-2.32-2.907-2.28-4.8 0.067-3.173 2.72-5.8 5.907-5.84 1.613-0.040 3.16 0.587 4.32 1.733 1.147 1.12 1.773 2.627 1.773 4.227 0 1.8-0.799 3.48-2.2 4.613z"></path>
</symbol>
<symbol id="icon-tweet" viewBox="0 0 32 32">
<path d="M28.346 14.842c0.443 0.189 1.015 0.323 1.718 0.4 0.323 0.027 0.633 0.039 0.94 0.039 0.356 0 0.691-0.020 0.996-0.059-0.384 0.36-0.878 0.671-1.475 0.937-0.604 0.267-1.38 0.399-2.338 0.399-0.438 1.638-1.251 3.11-2.438 4.404-1.183 1.299-2.591 2.372-4.223 3.218s-3.423 1.435-5.386 1.768c-1.104 0.199-2.208 0.297-3.316 0.297-0.836 0-1.676-0.060-2.511-0.179-1.936-0.251-3.796-0.842-5.596-1.768-1.799-0.924-3.37-2.246-4.717-3.962 0.761 0.678 1.649 1.204 2.66 1.569 1.011 0.364 2.062 0.55 3.153 0.55 1.092 0 2.166-0.2 3.219-0.59 1.050-0.391 1.994-1.003 2.836-1.828-0.16 0.025-0.319 0.039-0.482 0.039-0.305 0-0.584-0.054-0.835-0.16-0.401-0.16-0.678-0.377-0.828-0.649-0.155-0.272-0.155-0.573 0-0.9 0.15-0.326 0.539-0.614 1.167-0.866-0.214 0.023-0.423 0.037-0.619 0.037-0.309 0-0.595-0.026-0.856-0.077-0.444-0.082-0.824-0.219-1.15-0.41-0.331-0.196-0.598-0.405-0.812-0.631-0.212-0.227-0.393-0.469-0.54-0.722 0.269-0.239 0.566-0.422 0.9-0.546 0.333-0.127 0.772-0.206 1.318-0.231-1.222-0.266-2.096-0.663-2.614-1.179-0.519-0.519-0.85-1.117-0.979-1.796 0.361-0.056 0.718-0.118 1.087-0.19 0.364-0.075 0.656-0.083 0.87-0.032-1.042-0.519-1.765-1.125-2.18-1.817-0.358-0.611-0.538-1.186-0.538-1.719 0-0.067 0.007-0.139 0.021-0.22 1.877 0.654 3.458 1.254 4.742 1.798 1.287 0.548 2.428 1.080 3.427 1.602 0.386 0.155 0.77 0.395 1.159 0.716l1.258 1.081c0.268-0.709 0.57-1.409 0.915-2.109 0.351-0.701 0.719-1.37 1.112-2.009 0.393-0.637 0.833-1.226 1.326-1.758 0.493-0.53 1.054-0.968 1.677-1.318-0.025 0.304-0.183 0.607-0.477 0.899 0.361-0.304 0.749-0.55 1.167-0.74 0.423-0.186 0.866-0.309 1.33-0.377-0.054 0.306-0.271 0.558-0.66 0.749-0.386 0.194-0.723 0.343-1.017 0.448 0.105-0.025 0.317-0.095 0.628-0.207 0.314-0.114 0.647-0.219 1-0.309 0.356-0.094 0.672-0.157 0.961-0.179 0.284-0.027 0.456 0.023 0.507 0.159 0.079 0.16 0.033 0.296-0.139 0.409-0.172 0.114-0.384 0.208-0.631 0.292-0.243 0.079-0.493 0.143-0.736 0.199-0.248 0.055-0.41 0.094-0.489 0.118l-0.74 0.259c0.145-0.014 0.293-0.020 0.438-0.020 0.611 0 1.214 0.092 1.798 0.279 0.721 0.227 1.38 0.574 1.979 1.042 0.597 0.463 1.125 1.010 1.576 1.637 0.453 0.627 0.786 1.298 0.999 2.016l0.081 0.32c0.023 0.106 0.052 0.224 0.079 0.356 0.267 0.083 0.585 0.131 0.961 0.152 0.372 0.019 0.74 0 1.109-0.060 0.363-0.059 0.696-0.134 0.994-0.229 0.302-0.093 0.54-0.18 0.712-0.259-0.212 0.52-0.622 0.956-1.229 1.308-0.609 0.35-1.366 0.552-2.268 0.607z"></path>
</symbol>
<symbol id="icon-ui" viewBox="0 0 32 32">
<path d="M15.063 15.094c0 2.071-1.679 3.75-3.75 3.75s-3.75-1.679-3.75-3.75c0-2.071 1.679-3.75 3.75-3.75s3.75 1.679 3.75 3.75z"></path>
<path d="M12.25 28.219h11.25c4.653 0 8.5-3.785 8.5-8.438s-3.847-8.438-8.5-8.438c-0.004 0-0.006 0-0.010 0-1.881-4.515-6.309-7.563-11.24-7.563-6.72 0-12.25 5.53-12.25 12.25s5.53 12.188 12.25 12.188zM11.313 9.469c3.102 0 5.625 2.523 5.625 5.625 0 1.213-0.395 2.33-1.050 3.249l3.588 3.588c0.366 0.366 0.366 0.959 0 1.326s-0.959 0.366-1.326 0l-3.588-3.588c-0.92 0.655-2.037 1.050-3.249 1.050-3.102 0-5.625-2.523-5.625-5.625s2.523-5.625 5.625-5.625z"></path>
</symbol>
<symbol id="icon-user-1" viewBox="0 0 32 32">
<path d="M16 0c-8.823 0-16 7.177-16 16s7.177 16 16 16c0.161 0 0.319-0.020 0.48-0.024l0.056 0.011c0.044 0.008 0.087 0.013 0.131 0.013 0.061 0 0.124-0.008 0.183-0.025l0.075-0.021c8.392-0.484 15.076-7.443 15.076-15.953 0-8.823-7.177-16-16-16zM25.509 27.145c-0.063-0.204-0.204-0.376-0.409-0.444l-3.509-1.168c-1.225-0.511-1.796-2.472-1.929-3.259 0.908-0.844 1.747-2.101 1.747-3.237 0-0.387 0.109-0.535 0.088-0.539 0.208-0.052 0.377-0.2 0.457-0.399 0.065-0.164 0.64-1.629 0.64-2.617 0-0.055-0.007-0.109-0.020-0.161-0.084-0.335-0.28-0.672-0.573-0.883v-3.104c0-1.919-0.584-2.723-1.203-3.188-0.139-0.955-1.161-2.812-4.797-2.812-3.717 0-6 3.495-6 6v3.104c-0.293 0.211-0.489 0.548-0.573 0.883-0.013 0.053-0.020 0.108-0.020 0.161 0 0.988 0.575 2.453 0.64 2.617 0.080 0.199 0.185 0.325 0.393 0.377 0.043 0.025 0.152 0.175 0.152 0.56 0 1.136 0.839 2.393 1.747 3.237-0.132 0.785-0.697 2.745-1.884 3.241l-3.556 1.185c-0.204 0.068-0.351 0.236-0.415 0.44-3.148-2.692-5.153-6.684-5.153-11.141 0-8.087 6.58-14.667 14.667-14.667s14.667 6.58 14.667 14.667c0.003 4.459-2.004 8.453-5.155 11.145z"></path>
</symbol>
<symbol id="icon-user" viewBox="0 0 32 32">
<path d="M16 0c-8.823 0-16 7.177-16 16s7.177 16 16 16 16-7.177 16-16-7.177-16-16-16zM24.371 28.027l-3.405-1.136-0.408-1.633c1.283-1.277 2.163-3.023 2.428-4.817 0.719-0.211 1.272-0.833 1.369-1.609l0.315-2.519c0.068-0.543-0.1-1.089-0.459-1.501-0.204-0.235-0.461-0.415-0.745-0.527l0.113-2.331 0.461-0.461c0.719-0.764 1.315-2.073 0.072-3.971-0.952-1.453-2.567-2.191-4.801-2.191-0.879 0-2.899 0-4.784 1.263-5.388 0.116-6.12 2.624-6.12 5.071 0 0.56 0.135 1.808 0.224 2.581-0.319 0.107-0.608 0.296-0.835 0.552-0.365 0.415-0.536 0.965-0.468 1.513l0.315 2.519c0.104 0.829 0.728 1.481 1.519 1.647 0.265 1.723 1.099 3.413 2.307 4.667l-0.436 1.745-3.405 1.136c-3.8-2.653-6.296-7.051-6.296-12.027 0-8.087 6.58-14.667 14.667-14.667s14.667 6.58 14.667 14.667c0.003 4.979-2.493 9.376-6.293 12.029z"></path>
</symbol>
<symbol id="icon-vision-1" viewBox="0 0 32 32">
<path d="M8.502 9.773c-2.174 0-4.090 1.121-5.204 2.814h-2.643c-0.362 0-0.655 0.293-0.655 0.655s0.293 0.655 0.655 0.655h1.987c-0.237 0.657-0.367 1.366-0.367 2.103 0 3.433 2.793 6.227 6.227 6.227s6.227-2.793 6.227-6.227-2.793-6.227-6.227-6.227zM8.502 20.917c-2.711 0-4.917-2.206-4.917-4.917s2.206-4.917 4.917-4.917 4.917 2.206 4.917 4.917-2.206 4.917-4.917 4.917z"></path>
<path d="M31.345 12.587h-2.952c-0.316-0.482-0.699-0.922-1.141-1.304-1.129-0.974-2.573-1.51-4.065-1.51-2.23 0-4.188 1.179-5.288 2.945-0.478-0.611-1.22-1.004-2.054-1.004-0.437 0-0.869 0.11-1.25 0.319-0.317 0.174-0.434 0.571-0.26 0.889s0.571 0.433 0.889 0.26c0.192-0.105 0.401-0.158 0.622-0.158 0.715 0 1.297 0.582 1.297 1.297 0 0.045 0.005 0.088 0.013 0.13-0.127 0.495-0.195 1.014-0.195 1.549 0 3.433 2.793 6.227 6.227 6.227 2.578 0 4.92-1.62 5.829-4.032 0.127-0.338-0.043-0.716-0.382-0.843s-0.716 0.043-0.844 0.382c-0.718 1.904-2.567 3.184-4.603 3.184-2.711 0-4.917-2.206-4.917-4.917s2.206-4.917 4.917-4.917c2.436 0 4.479 1.744 4.857 4.146 0.056 0.357 0.391 0.601 0.749 0.545s0.601-0.391 0.545-0.748c-0.061-0.386-0.159-0.764-0.29-1.129h2.298c0.362 0 0.655-0.293 0.655-0.655s-0.293-0.655-0.655-0.655z"></path>
</symbol>
<symbol id="icon-youtube" viewBox="0 0 32 32">
<path d="M14.125 13.004v5.991l4.794-2.996z"></path>
<path d="M4.688 28.188h22.625c2.585 0 4.688-2.103 4.688-4.688v-15c0-2.585-2.103-4.688-4.688-4.688h-22.625c-2.585 0-4.688 2.103-4.688 4.688v15c0 2.585 2.103 4.688 4.688 4.688zM12.25 11.313c0-0.341 0.185-0.655 0.483-0.82 0.295-0.165 0.662-0.157 0.951 0.026l7.5 4.688c0.274 0.171 0.44 0.472 0.44 0.795s-0.167 0.623-0.44 0.795l-7.5 4.688c-0.152 0.095-0.324 0.143-0.497 0.143-0.157 0-0.313-0.039-0.454-0.117-0.298-0.166-0.483-0.48-0.483-0.82z"></path>
</symbol>
</defs>
</svg>
