<?xml version="1.0" encoding="iso-8859-1"?>
<!-- Generator: Adobe Illustrator 18.1.1, SVG Export Plug-In . SVG Version: 6.00 Build 0)  -->
<svg version="1.1" id="Capa_1" xmlns="http://www.w3.org/2000/svg" xmlns:xlink="http://www.w3.org/1999/xlink" x="0px" y="0px"
	 viewBox="0 0 261.08 261.08" style="enable-background:new 0 0 261.08 261.08;" xml:space="preserve">
<g>
	<g>
		<path style="fill:#010002;" d="M5.439,217.565h239.319c3.008,0,5.439-2.437,5.439-5.439v-13.793
			c2.796-0.43,5.249-1.605,7.158-3.519c2.649-2.649,3.932-6.277,3.699-10.481c-0.354-6.456-4.357-14.087-10.856-21.142V48.954
			c0-3.002-2.431-5.439-5.439-5.439H5.439C2.431,43.515,0,45.952,0,48.954v135.977v27.195C0,215.129,2.431,217.565,5.439,217.565z
			 M239.319,206.687H10.878V190.37h16.317h27.195h21.756h27.195h21.756h27.195h76.636c3.465,2.768,6.978,4.868,10.389,6.255V206.687
			z M48.952,179.492H32.634v-54.391h16.317V179.492z M97.903,179.492H81.586V97.906h16.317V179.492z M146.855,179.492h-16.317
			v-16.317h16.317V179.492z M251.111,188.57c-0.239,0.239-0.598,0.354-0.914,0.522c-0.81,0.43-1.768,0.702-2.997,0.631
			c-2.138-0.12-4.873-1.115-7.881-2.85c-2.915-1.681-6.086-4.074-9.344-7.381c-1.414-1.436-2.834-3.013-4.242-4.77
			c-9.622-11.999-13.957-22.121-14.207-25.716c4.384,0.321,14.631,5.27,25.743,14.18c0.729,0.587,1.376,1.18,2.051,1.773
			c5.26,4.607,8.855,9.306,10.878,13.331c1.256,2.497,1.942,4.748,2.04,6.521C252.373,187.308,251.426,188.254,251.111,188.57z
			 M181.529,148.62c-17.737,0-32.167-14.43-32.167-32.167s14.43-32.167,32.167-32.167s32.167,14.43,32.167,32.167
			S199.266,148.62,181.529,148.62z M10.878,54.393h228.441v99.247c-8.267-6.173-16.361-10.622-22.599-12.483
			c4.928-7,7.854-15.512,7.854-24.71c0-23.736-19.309-43.045-43.045-43.045s-43.045,19.309-43.045,43.045
			s19.309,43.045,43.045,43.045c8.028,0,15.523-2.252,21.963-6.092c2.654,10.079,11.95,22.501,14.756,26.086h-60.515V157.73
			c0-3.002-2.431-5.439-5.439-5.439h-27.195c-3.008,0-5.439,2.437-5.439,5.439v21.756h-10.878v-87.02
			c0-3.002-2.431-5.439-5.439-5.439H76.147c-3.008,0-5.439,2.437-5.439,5.439v87.025H59.83v-59.83c0-3.002-2.431-5.439-5.439-5.439
			H27.195c-3.008,0-5.439,2.437-5.439,5.439v59.83H10.878V54.393z"/>
		<path style="fill:#010002;" d="M184.02,94.229c-3.008,0-5.439,2.437-5.439,5.439s2.431,5.439,5.439,5.439
			c5.031,0,9.121,4.09,9.121,9.116c0,3.002,2.431,5.439,5.439,5.439s5.439-2.437,5.439-5.439
			C204.019,103.198,195.045,94.229,184.02,94.229z"/>
	</g>
</g>
<g>
</g>
<g>
</g>
<g>
</g>
<g>
</g>
<g>
</g>
<g>
</g>
<g>
</g>
<g>
</g>
<g>
</g>
<g>
</g>
<g>
</g>
<g>
</g>
<g>
</g>
<g>
</g>
<g>
</g>
</svg>
