<?xml version="1.0" encoding="iso-8859-1"?>
<!-- Generator: Adobe Illustrator 19.0.0, SVG Export Plug-In . SVG Version: 6.00 Build 0)  -->
<svg version="1.1" id="Capa_1" xmlns="http://www.w3.org/2000/svg" xmlns:xlink="http://www.w3.org/1999/xlink" x="0px" y="0px"
	 viewBox="0 0 512.001 512.001" style="enable-background:new 0 0 512.001 512.001;" xml:space="preserve">
<g>
	<g>
		<path d="M408.473,234.1c-7.027,0-12.741,5.716-12.741,12.741c0,7.026,5.716,12.742,12.741,12.742
			c7.026,0,12.742-5.716,12.742-12.742C421.214,239.816,415.498,234.1,408.473,234.1z"/>
	</g>
</g>
<g>
	<g>
		<path d="M471.036,152.028H40.963C18.375,152.028,0,170.404,0,192.991V319.01c0,22.587,18.375,40.963,40.963,40.963h430.074
			c22.587,0,40.964-18.375,40.964-40.963V192.991C512,170.404,493.624,152.028,471.036,152.028z M267.681,307.731H67.697
			c-8.291,0-15.012-6.722-15.012-15.012s6.721-15.012,15.012-15.012h199.984c8.291,0,15.012,6.722,15.012,15.012
			S275.971,307.731,267.681,307.731z M408.473,289.609c-5.777,0-11.286-1.157-16.317-3.243l-18.914,18.914
			c-2.931,2.931-6.774,4.398-10.615,4.398c-3.841,0-7.684-1.465-10.615-4.398c-5.863-5.863-5.863-15.368,0-21.231l18.178-18.178
			c-2.862-5.736-4.483-12.195-4.483-19.03c0-23.581,19.185-42.766,42.766-42.766s42.766,19.185,42.766,42.766
			C451.24,270.423,432.054,289.609,408.473,289.609z"/>
	</g>
</g>
<g>
</g>
<g>
</g>
<g>
</g>
<g>
</g>
<g>
</g>
<g>
</g>
<g>
</g>
<g>
</g>
<g>
</g>
<g>
</g>
<g>
</g>
<g>
</g>
<g>
</g>
<g>
</g>
<g>
</g>
</svg>
