<svg id="Layer_1" enable-background="new 0 0 512 512" viewBox="0 0 512 512" xmlns="http://www.w3.org/2000/svg"><g><g><path d="m256 0c-141.163 0-256 114.837-256 256s114.837 256 256 256 256-114.837 256-256-114.837-256-256-256zm133.931 448.427-54.485-18.176-4.352-17.387c52.928-9.003 80.235-24.896 81.429-25.6 3.029-1.771 4.907-4.992 5.163-8.491s-1.323-6.955-4.053-9.131c-.363-.277-36.16-29.931-36.16-132.587 0-87.296-20.523-131.563-61.035-131.563h-5.717c-14.464-13.973-25.451-20.16-54.72-20.16-38.059 0-121.472 38.208-121.472 151.701 0 102.656-35.797 132.309-36.032 132.501-2.837 2.133-4.437 5.525-4.267 9.067.192 3.563 2.112 6.763 5.163 8.597 1.195.725 28.224 16.683 81.493 25.685l-4.331 17.344-54.485 18.176c-60.801-42.43-100.737-112.787-100.737-192.403 0-129.387 105.28-234.667 234.667-234.667s234.667 105.28 234.667 234.667c0 79.616-39.936 149.973-100.736 192.427z"/></g></g><g/><g/><g/><g/><g/><g/><g/><g/><g/><g/><g/><g/><g/><g/><g/></svg>