<svg height="512pt" viewBox="0 -28 512.0001 512" width="512pt" xmlns="http://www.w3.org/2000/svg"><path d="m317.480469 219.5625c3.164062 0 6.292969-.988281 8.917969-2.894531 4.050781-2.941407 6.386718-7.691407 6.246093-12.695313l-1.667969-59.839844 36.523438-47.429687c3.054688-3.964844 3.957031-9.183594 2.410156-13.941406-1.546875-4.761719-5.34375-8.453125-10.144531-9.867188l-57.425781-16.90625-33.824219-49.390625c-2.828125-4.128906-7.511719-6.597656-12.515625-6.597656s-9.6875 2.46875-12.515625 6.597656l-33.820313 49.390625-57.429687 16.90625c-4.800781 1.414063-8.59375 5.105469-10.140625 9.867188-1.546875 4.757812-.648438 9.976562 2.40625 13.941406l36.523438 47.429687-1.667969 59.839844c-.140625 5.003906 2.195312 9.753906 6.246093 12.695313 4.050782 2.941406 9.289063 3.695312 14.003907 2.015625l56.394531-20.078125 56.398438 20.078125c1.652343.589844 3.371093.878906 5.082031.878906zm0 0"/><path d="m218.417969 309.289062-57.425781-16.902343-33.824219-49.390625c-2.828125-4.132813-7.511719-6.601563-12.515625-6.601563s-9.6875 2.46875-12.515625 6.601563l-33.824219 49.390625-57.425781 16.902343c-4.800781 1.414063-8.597657 5.105469-10.144531 9.867188-1.546876 4.757812-.6445318 9.976562 2.40625 13.941406l36.523437 47.429688-1.667969 59.839844c-.136718 5.003906 2.199219 9.753906 6.246094 12.695312 4.050781 2.941406 9.289062 3.695312 14.007812 2.019531l56.394532-20.078125 56.394531 20.078125c1.65625.589844 3.375.878907 5.085937.878907 3.164063 0 6.292969-.992188 8.917969-2.898438 4.050781-2.941406 6.386719-7.691406 6.246094-12.695312l-1.667969-59.839844 36.523438-47.429688c3.054687-3.964844 3.957031-9.183594 2.410156-13.941406-1.546875-4.761719-5.34375-8.453125-10.144531-9.867188zm0 0"/><path d="m511.257812 319.15625c-1.546874-4.761719-5.34375-8.453125-10.144531-9.867188l-57.425781-16.902343-33.820312-49.390625c-2.828126-4.132813-7.511719-6.601563-12.519532-6.601563-5.003906 0-9.6875 2.46875-12.515625 6.601563l-33.820312 49.390625-57.425781 16.902343c-4.804688 1.414063-8.597657 5.105469-10.144532 9.867188-1.546875 4.757812-.644531 9.976562 2.40625 13.941406l36.523438 47.429688-1.667969 59.839844c-.140625 5.003906 2.199219 9.753906 6.246094 12.695312 4.050781 2.941406 9.289062 3.695312 14.007812 2.019531l56.394531-20.078125 56.394532 20.078125c1.65625.589844 3.375.878907 5.085937.878907 3.160157 0 6.289063-.992188 8.917969-2.898438 4.050781-2.941406 6.386719-7.691406 6.246094-12.695312l-1.667969-59.839844 36.523437-47.429688c3.050782-3.964844 3.953126-9.183594 2.40625-13.941406zm0 0"/></svg>