<svg height="512" viewBox="0 0 58 56" width="512" xmlns="http://www.w3.org/2000/svg"><g id="Page-1" fill="none" fill-rule="evenodd"><g id="096---High-Search-Engine-Rank" fill="rgb(0,0,0)" fill-rule="nonzero"><path id="Shape" d="m5 4c-.45110635.00039514-.84609715.30276674-.96422767.73813128-.11813051.43536453.06985048.89591796.45888784 1.1242752s.88279849.16797295 1.20533983-.14740648v-.015h.015c.28195933-.28765576.36380835-.71639843.20764592-1.08769373-.15616243-.37129529-.51984724-.61265168-.92264592-.61230627z"/><path id="Shape" d="m4 54c0 1.1045695.8954305 2 2 2h36c1.1045695 0 2-.8954305 2-2v-40c0-.5522847-.4477153-1-1-1h-38c-.55228475 0-1 .4477153-1 1zm33-33h3c.5522847 0 1 .4477153 1 1s-.4477153 1-1 1h-3c-.5522847 0-1-.4477153-1-1s.4477153-1 1-1zm0 10h3c.5522847 0 1 .4477153 1 1s-.4477153 1-1 1h-3c-.5522847 0-1-.4477153-1-1s.4477153-1 1-1zm0 10h3c.5522847 0 1 .4477153 1 1s-.4477153 1-1 1h-3c-.5522847 0-1-.4477153-1-1s.4477153-1 1-1zm0 10h3c.5522847 0 1 .4477153 1 1s-.4477153 1-1 1h-3c-.5522847 0-1-.4477153-1-1s.4477153-1 1-1zm-12-30h8c.5522847 0 1 .4477153 1 1s-.4477153 1-1 1h-8c-.5522847 0-1-.4477153-1-1s.4477153-1 1-1zm0 10h8c.5522847 0 1 .4477153 1 1s-.4477153 1-1 1h-8c-.5522847 0-1-.4477153-1-1s.4477153-1 1-1zm0 10h8c.5522847 0 1 .4477153 1 1s-.4477153 1-1 1h-8c-.5522847 0-1-.4477153-1-1s.4477153-1 1-1zm0 10h8c.5522847 0 1 .4477153 1 1s-.4477153 1-1 1h-8c-.5522847 0-1-.4477153-1-1s.4477153-1 1-1zm-17-34h8c.5522847 0 1 .4477153 1 1s-.4477153 1-1 1h-8c-.55228475 0-1-.4477153-1-1s.44771525-1 1-1zm0 4h13c.5522847 0 1 .4477153 1 1s-.4477153 1-1 1h-13c-.55228475 0-1-.4477153-1-1s.44771525-1 1-1zm0 6h8c.5522847 0 1 .4477153 1 1s-.4477153 1-1 1h-8c-.55228475 0-1-.4477153-1-1s.44771525-1 1-1zm0 4h13c.5522847 0 1 .4477153 1 1s-.4477153 1-1 1h-13c-.55228475 0-1-.4477153-1-1s.44771525-1 1-1zm0 6h8c.5522847 0 1 .4477153 1 1s-.4477153 1-1 1h-8c-.55228475 0-1-.4477153-1-1s.44771525-1 1-1zm0 4h13c.5522847 0 1 .4477153 1 1s-.4477153 1-1 1h-13c-.55228475 0-1-.4477153-1-1s.44771525-1 1-1zm0 6h8c.5522847 0 1 .4477153 1 1s-.4477153 1-1 1h-8c-.55228475 0-1-.4477153-1-1s.44771525-1 1-1zm0 4h13c.5522847 0 1 .4477153 1 1s-.4477153 1-1 1h-13c-.55228475 0-1-.4477153-1-1s.44771525-1 1-1z"/><path id="Shape" d="m55 0h-41c-.5522847 0-1 .44771525-1 1v9c0 .5522847.4477153 1 1 1h41c.5522847 0 1-.4477153 1-1v-9c0-.55228475-.4477153-1-1-1zm-38 3h7c.5522847 0 1 .44771525 1 1s-.4477153 1-1 1h-7c-.5522847 0-1-.44771525-1-1s.4477153-1 1-1zm15 6h-15c-.5522847 0-1-.44771525-1-1s.4477153-1 1-1h15c.5522847 0 1 .44771525 1 1s-.4477153 1-1 1zm11 0h-7c-.5522847 0-1-.44771525-1-1s.4477153-1 1-1h7c.5522847 0 1 .44771525 1 1s-.4477153 1-1 1zm8-4h-23c-.5522847 0-1-.44771525-1-1s.4477153-1 1-1h23c.5522847 0 1 .44771525 1 1s-.4477153 1-1 1z"/><path id="Shape" d="m10 0h-9c-.55228475 0-1 .44771525-1 1v9c0 .5522847.44771525 1 1 1h9c.5522847 0 1-.4477153 1-1v-9c0-.55228475-.4477153-1-1-1zm-1.293 8.707c-.39049985.39038194-1.02350015.39038194-1.414 0l-1.008-1.007c-.40036082.19525405-.8395698.29779311-1.285.3-1.65685425 0-3-1.34314575-3-3s1.34314575-3 3-3 3 1.34314575 3 3c-.00172472.44548682-.10428855.88480192-.3 1.285l1.008 1.008c.39010591.39077588.38965824 1.02377629-.001 1.414z"/><path id="Shape" d="m57 19h-5.586l1.293-1.293c.3789722-.3923789.3735524-1.0160848-.0121814-1.4018186s-1.0094397-.3911536-1.4018186-.0121814l-3 3c-.3903819.3904999-.3903819 1.0235001 0 1.414l3 3c.3923789.3789722 1.0160848.3735524 1.4018186-.0121814s.3911536-1.0094397.0121814-1.4018186l-1.293-1.293h5.586c.5522847 0 1-.4477153 1-1s-.4477153-1-1-1z"/></g></g></svg>