<svg id="Layer_1" enable-background="new 0 0 512 512" viewBox="0 0 512 512" xmlns="http://www.w3.org/2000/svg"><g><g><path d="m256 0c-141.163 0-256 114.837-256 256s114.837 256 256 256 256-114.837 256-256-114.837-256-256-256zm133.931 448.427-54.485-18.176-6.528-26.133c20.523-20.437 34.603-48.363 38.848-77.077 11.499-3.371 20.352-13.333 21.909-25.749l5.035-40.299c1.088-8.683-1.6-17.429-7.339-24.021-3.264-3.755-7.381-6.635-11.925-8.427l1.813-37.291 7.381-7.381c11.499-12.224 21.035-33.173 1.152-63.531-15.232-23.253-41.067-35.051-76.821-35.051-14.059 0-46.379 0-76.544 20.203-86.208 1.856-97.92 41.984-97.92 81.131 0 8.96 2.155 28.928 3.584 41.301-5.099 1.707-9.728 4.736-13.355 8.832-5.845 6.635-8.576 15.445-7.488 24.213l5.035 40.299c1.664 13.269 11.648 23.701 24.299 26.347 4.245 27.563 17.579 54.613 36.907 74.667l-6.976 27.925-54.485 18.176c-60.8-42.453-100.736-112.811-100.736-192.427 0-129.387 105.28-234.667 234.667-234.667s234.667 105.28 234.667 234.667c.041 79.658-39.895 150.015-100.695 192.469z"/></g></g><g/><g/><g/><g/><g/><g/><g/><g/><g/><g/><g/><g/><g/><g/><g/></svg>