<svg id="Layer_1" enable-background="new 0 0 512 512" viewBox="0 0 512 512" xmlns="http://www.w3.org/2000/svg"><g><g><path d="m256 0c-141.163 0-256 114.837-256 256s114.837 256 256 256c2.581 0 5.099-.32 7.68-.384l.896.171c.704.128 1.387.213 2.091.213.981 0 1.984-.128 2.923-.405l1.195-.341c134.271-7.745 241.215-119.083 241.215-255.254 0-141.163-114.837-256-256-256zm152.149 434.325c-1.003-3.264-3.264-6.016-6.549-7.104l-56.149-18.688c-19.605-8.171-28.736-39.552-30.869-52.139 14.528-13.504 27.947-33.621 27.947-51.797 0-6.187 1.749-8.555 1.408-8.619 3.328-.832 6.037-3.2 7.317-6.379 1.045-2.624 10.24-26.069 10.24-41.877 0-.875-.107-1.749-.32-2.581-1.344-5.355-4.48-10.752-9.173-14.123v-49.664c0-30.699-9.344-43.563-19.243-51.008-2.219-15.275-18.581-44.992-76.757-44.992-59.477 0-96 55.915-96 96v49.664c-4.693 3.371-7.829 8.768-9.173 14.123-.213.853-.32 1.728-.32 2.581 0 15.808 9.195 39.253 10.24 41.877 1.28 3.179 2.965 5.205 6.293 6.037.683.405 2.432 2.795 2.432 8.96 0 18.176 13.419 38.293 27.947 51.797-2.112 12.565-11.157 43.925-30.144 51.861l-56.896 18.965c-3.264 1.088-5.611 3.776-6.635 7.04-50.369-43.07-82.454-106.942-82.454-178.259 0-129.387 105.28-234.667 234.667-234.667s234.666 105.28 234.666 234.667c.043 71.339-32.064 135.253-82.475 178.325z"/></g></g><g/><g/><g/><g/><g/><g/><g/><g/><g/><g/><g/><g/><g/><g/><g/></svg>